<mxfile host="app.diagrams.net" modified="2021-05-22T17:12:44.459Z" agent="5.0 (Windows NT 10.0; Win64; x64) AppleWebKit/537.36 (KHTML, like Gecko) Chrome/90.0.4430.212 Safari/537.36" etag="6GADWj1qxj1f9bpqpq-I" version="14.7.0" type="github">
  <diagram id="qtPv1vEU4sdEXhc-7MDy" name="第 1 页">
    <mxGraphModel dx="1422" dy="800" grid="1" gridSize="10" guides="1" tooltips="1" connect="1" arrows="1" fold="1" page="1" pageScale="1" pageWidth="827" pageHeight="1169" math="0" shadow="0">
      <root>
        <mxCell id="0" />
        <mxCell id="1" parent="0" />
        <mxCell id="Skhjj6vPnXV0KK0YvXiV-13" value="" style="rounded=0;whiteSpace=wrap;html=1;dashed=1;strokeWidth=2;" parent="1" vertex="1">
          <mxGeometry x="198" y="190" width="140" height="220" as="geometry" />
        </mxCell>
        <mxCell id="Skhjj6vPnXV0KK0YvXiV-1" value="&lt;font face=&quot;Times New Roman&quot; size=&quot;1&quot;&gt;&lt;b style=&quot;font-size: 20px&quot;&gt;weight layer&lt;/b&gt;&lt;/font&gt;" style="rounded=0;whiteSpace=wrap;html=1;" parent="1" vertex="1">
          <mxGeometry x="208" y="200" width="120" height="40" as="geometry" />
        </mxCell>
        <mxCell id="Skhjj6vPnXV0KK0YvXiV-2" value="" style="endArrow=classic;html=1;" parent="1" edge="1">
          <mxGeometry width="50" height="50" relative="1" as="geometry">
            <mxPoint x="268" y="140" as="sourcePoint" />
            <mxPoint x="267.5" y="200" as="targetPoint" />
          </mxGeometry>
        </mxCell>
        <mxCell id="Skhjj6vPnXV0KK0YvXiV-3" value="&lt;font face=&quot;Times New Roman&quot; size=&quot;1&quot;&gt;&lt;b style=&quot;font-size: 20px&quot;&gt;ReLU&lt;/b&gt;&lt;/font&gt;" style="rounded=0;whiteSpace=wrap;html=1;" parent="1" vertex="1">
          <mxGeometry x="208" y="280" width="120" height="40" as="geometry" />
        </mxCell>
        <mxCell id="Skhjj6vPnXV0KK0YvXiV-4" value="" style="endArrow=classic;html=1;" parent="1" edge="1">
          <mxGeometry width="50" height="50" relative="1" as="geometry">
            <mxPoint x="267.5" y="240" as="sourcePoint" />
            <mxPoint x="267.5" y="280" as="targetPoint" />
          </mxGeometry>
        </mxCell>
        <mxCell id="Skhjj6vPnXV0KK0YvXiV-5" value="&lt;span style=&quot;font-family: &amp;#34;times new roman&amp;#34;&quot;&gt;&lt;font style=&quot;font-size: 20px&quot;&gt;&lt;b&gt;weight layer&lt;/b&gt;&lt;/font&gt;&lt;/span&gt;" style="rounded=0;whiteSpace=wrap;html=1;" parent="1" vertex="1">
          <mxGeometry x="208" y="360" width="120" height="40" as="geometry" />
        </mxCell>
        <mxCell id="Skhjj6vPnXV0KK0YvXiV-6" value="" style="endArrow=classic;html=1;" parent="1" edge="1">
          <mxGeometry width="50" height="50" relative="1" as="geometry">
            <mxPoint x="267.5" y="320" as="sourcePoint" />
            <mxPoint x="267.5" y="360" as="targetPoint" />
          </mxGeometry>
        </mxCell>
        <mxCell id="Skhjj6vPnXV0KK0YvXiV-7" value="" style="endArrow=classic;html=1;entryX=0.5;entryY=0;entryDx=0;entryDy=0;" parent="1" target="Skhjj6vPnXV0KK0YvXiV-8" edge="1">
          <mxGeometry width="50" height="50" relative="1" as="geometry">
            <mxPoint x="267.5" y="400" as="sourcePoint" />
            <mxPoint x="268" y="480" as="targetPoint" />
          </mxGeometry>
        </mxCell>
        <mxCell id="Skhjj6vPnXV0KK0YvXiV-8" value="&lt;font face=&quot;Times New Roman&quot; style=&quot;font-size: 20px&quot;&gt;&lt;b&gt;ReLU&lt;/b&gt;&lt;/font&gt;" style="rounded=0;whiteSpace=wrap;html=1;" parent="1" vertex="1">
          <mxGeometry x="208" y="510" width="120" height="40" as="geometry" />
        </mxCell>
        <mxCell id="Skhjj6vPnXV0KK0YvXiV-9" value="&lt;font face=&quot;Times New Roman&quot; size=&quot;1&quot;&gt;&lt;i&gt;&lt;b style=&quot;font-size: 20px&quot;&gt;x&lt;/b&gt;&lt;/i&gt;&lt;/font&gt;" style="text;html=1;resizable=0;autosize=1;align=center;verticalAlign=middle;points=[];fillColor=none;strokeColor=none;rounded=0;" parent="1" vertex="1">
          <mxGeometry x="273" y="150" width="30" height="20" as="geometry" />
        </mxCell>
        <mxCell id="Skhjj6vPnXV0KK0YvXiV-10" value="" style="endArrow=classic;html=1;" parent="1" edge="1">
          <mxGeometry width="50" height="50" relative="1" as="geometry">
            <mxPoint x="267.58000000000004" y="550" as="sourcePoint" />
            <mxPoint x="267.58000000000004" y="590" as="targetPoint" />
          </mxGeometry>
        </mxCell>
        <mxCell id="Skhjj6vPnXV0KK0YvXiV-11" value="&lt;span style=&quot;color: rgb(0 , 0 , 0) ; letter-spacing: normal ; text-align: center ; text-indent: 0px ; text-transform: none ; word-spacing: 0px ; background-color: rgb(248 , 249 , 250) ; display: inline ; float: none&quot;&gt;&lt;font face=&quot;Times New Roman&quot; size=&quot;1&quot;&gt;&lt;i style=&quot;font-size: 20px&quot;&gt;&lt;b&gt;f(x)&lt;/b&gt;&lt;/i&gt;&lt;/font&gt;&lt;/span&gt;" style="text;whiteSpace=wrap;html=1;" parent="1" vertex="1">
          <mxGeometry x="278" y="410" width="30" height="30" as="geometry" />
        </mxCell>
        <mxCell id="Skhjj6vPnXV0KK0YvXiV-14" value="" style="rounded=0;whiteSpace=wrap;html=1;dashed=1;strokeWidth=2;" parent="1" vertex="1">
          <mxGeometry x="400" y="190" width="140" height="220" as="geometry" />
        </mxCell>
        <mxCell id="Skhjj6vPnXV0KK0YvXiV-15" value="&lt;font face=&quot;Times New Roman&quot; size=&quot;1&quot;&gt;&lt;b style=&quot;font-size: 20px&quot;&gt;weight layer&lt;/b&gt;&lt;/font&gt;" style="rounded=0;whiteSpace=wrap;html=1;" parent="1" vertex="1">
          <mxGeometry x="410" y="200" width="120" height="40" as="geometry" />
        </mxCell>
        <mxCell id="Skhjj6vPnXV0KK0YvXiV-16" value="" style="endArrow=classic;html=1;" parent="1" edge="1">
          <mxGeometry width="50" height="50" relative="1" as="geometry">
            <mxPoint x="470" y="140" as="sourcePoint" />
            <mxPoint x="469.5" y="200" as="targetPoint" />
          </mxGeometry>
        </mxCell>
        <mxCell id="Skhjj6vPnXV0KK0YvXiV-17" value="&lt;font face=&quot;Times New Roman&quot; style=&quot;font-size: 20px&quot;&gt;&lt;b&gt;ReLU&lt;/b&gt;&lt;/font&gt;" style="rounded=0;whiteSpace=wrap;html=1;" parent="1" vertex="1">
          <mxGeometry x="410" y="280" width="120" height="40" as="geometry" />
        </mxCell>
        <mxCell id="Skhjj6vPnXV0KK0YvXiV-18" value="" style="endArrow=classic;html=1;" parent="1" edge="1">
          <mxGeometry width="50" height="50" relative="1" as="geometry">
            <mxPoint x="469.5" y="240" as="sourcePoint" />
            <mxPoint x="469.5" y="280" as="targetPoint" />
          </mxGeometry>
        </mxCell>
        <mxCell id="Skhjj6vPnXV0KK0YvXiV-19" value="&lt;span style=&quot;font-family: &amp;#34;times new roman&amp;#34;&quot;&gt;&lt;b&gt;&lt;font style=&quot;font-size: 20px&quot;&gt;weight layer&lt;/font&gt;&lt;/b&gt;&lt;/span&gt;" style="rounded=0;whiteSpace=wrap;html=1;" parent="1" vertex="1">
          <mxGeometry x="410" y="360" width="120" height="40" as="geometry" />
        </mxCell>
        <mxCell id="Skhjj6vPnXV0KK0YvXiV-20" value="" style="endArrow=classic;html=1;" parent="1" edge="1">
          <mxGeometry width="50" height="50" relative="1" as="geometry">
            <mxPoint x="469.5" y="320" as="sourcePoint" />
            <mxPoint x="469.5" y="360" as="targetPoint" />
          </mxGeometry>
        </mxCell>
        <mxCell id="Skhjj6vPnXV0KK0YvXiV-21" value="" style="endArrow=classic;html=1;" parent="1" edge="1">
          <mxGeometry width="50" height="50" relative="1" as="geometry">
            <mxPoint x="469.5" y="400" as="sourcePoint" />
            <mxPoint x="470" y="440" as="targetPoint" />
          </mxGeometry>
        </mxCell>
        <mxCell id="Skhjj6vPnXV0KK0YvXiV-22" value="&lt;font face=&quot;Times New Roman&quot; size=&quot;1&quot;&gt;&lt;b style=&quot;font-size: 20px&quot;&gt;ReLU&lt;/b&gt;&lt;/font&gt;" style="rounded=0;whiteSpace=wrap;html=1;" parent="1" vertex="1">
          <mxGeometry x="410" y="510" width="120" height="40" as="geometry" />
        </mxCell>
        <mxCell id="Skhjj6vPnXV0KK0YvXiV-23" value="&lt;font face=&quot;Times New Roman&quot; size=&quot;1&quot;&gt;&lt;i style=&quot;font-size: 20px&quot;&gt;&lt;b&gt;x&lt;/b&gt;&lt;/i&gt;&lt;/font&gt;" style="text;html=1;resizable=0;autosize=1;align=center;verticalAlign=middle;points=[];fillColor=none;strokeColor=none;rounded=0;" parent="1" vertex="1">
          <mxGeometry x="475" y="150" width="30" height="20" as="geometry" />
        </mxCell>
        <mxCell id="Skhjj6vPnXV0KK0YvXiV-24" value="" style="endArrow=classic;html=1;" parent="1" edge="1">
          <mxGeometry width="50" height="50" relative="1" as="geometry">
            <mxPoint x="469.58" y="550" as="sourcePoint" />
            <mxPoint x="469.58" y="590" as="targetPoint" />
          </mxGeometry>
        </mxCell>
        <mxCell id="Skhjj6vPnXV0KK0YvXiV-25" value="&lt;span style=&quot;color: rgb(0 , 0 , 0) ; letter-spacing: normal ; text-align: center ; text-indent: 0px ; text-transform: none ; word-spacing: 0px ; background-color: rgb(248 , 249 , 250) ; display: inline ; float: none&quot;&gt;&lt;font face=&quot;Times New Roman&quot; size=&quot;1&quot;&gt;&lt;i&gt;&lt;b style=&quot;font-size: 20px&quot;&gt;f(x) - x&lt;/b&gt;&lt;/i&gt;&lt;/font&gt;&lt;/span&gt;" style="text;whiteSpace=wrap;html=1;" parent="1" vertex="1">
          <mxGeometry x="480" y="410" width="90" height="30" as="geometry" />
        </mxCell>
        <mxCell id="Skhjj6vPnXV0KK0YvXiV-26" value="&lt;font size=&quot;1&quot;&gt;&lt;b style=&quot;font-size: 18px&quot;&gt;+&lt;/b&gt;&lt;/font&gt;" style="ellipse;whiteSpace=wrap;html=1;aspect=fixed;dashed=1;" parent="1" vertex="1">
          <mxGeometry x="460" y="440" width="20" height="20" as="geometry" />
        </mxCell>
        <mxCell id="Skhjj6vPnXV0KK0YvXiV-27" value="" style="endArrow=classic;html=1;entryX=0.5;entryY=0;entryDx=0;entryDy=0;" parent="1" target="Skhjj6vPnXV0KK0YvXiV-22" edge="1">
          <mxGeometry width="50" height="50" relative="1" as="geometry">
            <mxPoint x="469.58000000000004" y="460" as="sourcePoint" />
            <mxPoint x="469.58000000000004" y="500" as="targetPoint" />
          </mxGeometry>
        </mxCell>
        <mxCell id="Skhjj6vPnXV0KK0YvXiV-28" value="" style="endArrow=none;html=1;" parent="1" edge="1">
          <mxGeometry width="50" height="50" relative="1" as="geometry">
            <mxPoint x="470" y="170" as="sourcePoint" />
            <mxPoint x="570" y="170" as="targetPoint" />
          </mxGeometry>
        </mxCell>
        <mxCell id="Skhjj6vPnXV0KK0YvXiV-29" value="" style="endArrow=none;html=1;" parent="1" edge="1">
          <mxGeometry width="50" height="50" relative="1" as="geometry">
            <mxPoint x="570" y="450" as="sourcePoint" />
            <mxPoint x="570" y="170" as="targetPoint" />
          </mxGeometry>
        </mxCell>
        <mxCell id="Skhjj6vPnXV0KK0YvXiV-30" value="" style="endArrow=classic;html=1;" parent="1" edge="1">
          <mxGeometry width="50" height="50" relative="1" as="geometry">
            <mxPoint x="570" y="449.71" as="sourcePoint" />
            <mxPoint x="480" y="449.71" as="targetPoint" />
          </mxGeometry>
        </mxCell>
        <mxCell id="Skhjj6vPnXV0KK0YvXiV-31" value="&lt;span style=&quot;color: rgb(0 , 0 , 0) ; letter-spacing: normal ; text-align: center ; text-indent: 0px ; text-transform: none ; word-spacing: 0px ; background-color: rgb(248 , 249 , 250) ; display: inline ; float: none&quot;&gt;&lt;font face=&quot;Times New Roman&quot; size=&quot;1&quot;&gt;&lt;i&gt;&lt;b style=&quot;font-size: 20px&quot;&gt;f(x)&lt;/b&gt;&lt;/i&gt;&lt;/font&gt;&lt;/span&gt;" style="text;whiteSpace=wrap;html=1;" parent="1" vertex="1">
          <mxGeometry x="480" y="470" width="30" height="30" as="geometry" />
        </mxCell>
      </root>
    </mxGraphModel>
  </diagram>
</mxfile>
